<?xml version="1.0" encoding="utf-8"?>
<!-- Generator: Adobe Illustrator 22.0.1, SVG Export Plug-In . SVG Version: 6.00 Build 0)  -->
<svg version="1.1" id="Capa_1" xmlns="http://www.w3.org/2000/svg" xmlns:xlink="http://www.w3.org/1999/xlink" x="0px" y="0px"
	 viewBox="0 0 512 512" style="enable-background:new 0 0 512 512;" xml:space="preserve">
<style type="text/css">
	.st0{fill:#FFFFFF;}
</style>
<path class="st0" d="M256,512c141.2,0,256-114.8,256-256S397.2,0,256,0S0,114.8,0,256S114.8,512,256,512z M123.2,249l187.7-128
	c1.4-1,3.1-1.5,4.8-1.5c1.4,0,2.7,0.3,4,1c2.8,1.5,4.5,4.4,4.5,7.5v256c0,3.2-1.7,6.1-4.5,7.5c-2.8,1.5-6.2,1.3-8.8-0.5L123.2,263
	c-2.3-1.6-3.7-4.2-3.7-7C119.5,253.2,120.9,250.5,123.2,249z"/>
</svg>
